<?xml version="1.0" encoding="UTF-8"?>
<svg width="1819px" height="593px" viewBox="0 0 1819 593" version="1.1" xmlns="http://www.w3.org/2000/svg" xmlns:xlink="http://www.w3.org/1999/xlink">
    <!-- Generator: Sketch 40.3 (33839) - http://www.bohemiancoding.com/sketch -->
    <title>Slice 1</title>
    <desc>Created with Sketch.</desc>
    <defs></defs>
    <g id="Page-1" stroke="none" stroke-width="1" fill="none" fill-rule="evenodd" opacity="0.1">
        <path d="M1570.184,420.25 L1594.384,420.25 L1594.384,393.52 L1570.184,393.52 L1570.184,420.25 Z M1538.684,303.9 L1562.884,303.9 L1562.884,277.18 L1538.684,277.18 L1538.684,303.9 Z M1474.444,334.24 L1498.654,334.24 L1498.654,307.52 L1474.444,307.52 L1474.444,334.24 Z M1462.354,444.67 L1486.554,444.67 L1486.554,417.94 L1462.354,417.94 L1462.354,444.67 Z M1396.134,303.9 L1413.304,303.9 L1413.304,277.18 L1396.134,277.18 L1396.134,303.9 Z M1396.134,442.81 L1412.004,442.81 L1412.004,364.63 L1396.134,364.63 L1396.134,442.81 Z M1339.444,354.93 L1351.254,354.93 L1351.254,333.66 L1339.444,333.66 L1339.444,354.93 Z M1284.544,277.18 L1315.944,277.18 L1315.944,260.209 L1284.544,260.209 L1284.544,277.18 Z M1268.844,168.587 L1300.244,168.587 L1300.244,151.614 L1268.844,151.614 L1268.844,168.587 Z M1217.294,243.47 L1248.694,243.47 L1248.694,226.497 L1217.294,226.497 L1217.294,243.47 Z M1093.354,168.587 L1108.724,168.587 L1108.724,151.614 L1093.354,151.614 L1093.354,168.587 Z M1085.664,94.703 L1101.034,94.703 L1101.034,77.729 L1085.664,77.729 L1085.664,94.703 Z M1071.334,188.65 L1064.944,188.65 L1064.944,262.208 L1036.344,262.208 L1036.344,168.667 L1071.334,168.667 L1071.334,188.65 L1071.334,188.65 Z M1052.044,305.85 L1071.334,305.85 L1071.334,291.85 L1052.044,291.85 L1052.044,305.85 Z M992.674,354.93 L1008.894,354.93 L1008.894,168.667 L992.674,168.667 L992.674,354.93 Z M938.074,183.121 L947.914,183.121 L947.914,169.118 L938.074,169.118 L938.074,183.121 Z M944.734,244.076 L947.914,244.076 L947.914,230.071 L944.734,230.071 L944.734,244.076 Z M931.424,305.85 L944.734,305.85 L944.734,291.85 L931.424,291.85 L931.424,305.85 Z M883.712,461.2 L885.409,461.2 L885.409,449.2 L883.712,449.2 L883.712,461.2 Z M808.993,459.04 L818.815,459.04 L818.815,439.36 L808.993,439.36 L808.993,459.04 Z M765.137,177.074 L780.509,177.074 L780.509,160.101 L765.137,160.101 L765.137,177.074 Z M765.137,234.983 L780.509,234.983 L780.509,218.01 L765.137,218.01 L765.137,234.983 Z M728.967,306.69 L744.339,306.69 L744.339,303.9 L728.967,303.9 L728.967,306.69 Z M714.253,415.37 L727.223,415.37 L727.223,398.4 L714.253,398.4 L714.253,415.37 Z M706.568,272.67 L721.94,272.67 L721.94,255.701 L706.568,255.701 L706.568,272.67 Z M706.568,168.587 L721.94,168.587 L721.94,151.614 L706.568,151.614 L706.568,168.587 Z M660.571,251.075 L673.879,251.075 L673.879,237.073 L660.571,237.073 L660.571,251.075 Z M660.571,298.85 L673.879,298.85 L673.879,284.84 L660.571,284.84 L660.571,298.85 Z M514.476,226.497 L529.848,226.497 L529.848,209.523 L514.476,209.523 L514.476,226.497 Z M514.476,262.208 L509.649,262.208 L509.649,264.188 L499.104,264.188 L499.104,247.214 L514.476,247.214 L514.476,262.208 L514.476,262.208 Z M491.418,364.31 L500.254,364.31 L500.254,347.34 L491.418,347.34 L491.418,364.31 Z M464.968,226.497 L480.34,226.497 L480.34,209.523 L464.968,209.523 L464.968,226.497 Z M467.259,320.88 L480.34,320.88 L480.34,303.9 L467.259,303.9 L467.259,320.88 Z M444.853,291.85 L452.132,291.85 L452.132,277.84 L444.853,277.84 L444.853,291.85 Z M400.688,291.85 L413.996,291.85 L413.996,277.84 L400.688,277.84 L400.688,291.85 Z M403.277,369.71 L413.996,369.71 L413.996,355.71 L403.277,355.71 L403.277,369.71 Z M383.272,325.15 L389.574,325.15 L389.574,317.36 L383.272,317.36 L383.272,325.15 Z M383.272,342.27 L389.574,342.27 L389.574,334.48 L383.272,334.48 L383.272,342.27 Z M383.272,359.4 L389.574,359.4 L389.574,351.61 L383.272,351.61 L383.272,359.4 Z M383.272,376.53 L389.574,376.53 L389.574,368.73 L383.272,368.73 L383.272,376.53 Z M383.272,393.65 L389.574,393.65 L389.574,385.86 L383.272,385.86 L383.272,393.65 Z M383.272,410.78 L389.574,410.78 L389.574,402.99 L383.272,402.99 L383.272,410.78 Z M383.272,427.91 L389.574,427.91 L389.574,420.12 L383.272,420.12 L383.272,427.91 Z M383.272,445.03 L389.574,445.03 L389.574,437.24 L383.272,437.24 L383.272,445.03 Z M363.694,325.15 L363.7,325.15 L363.7,317.36 L363.694,317.36 L363.694,325.15 Z M363.694,342.27 L363.7,342.27 L363.7,334.48 L363.694,334.48 L363.694,342.27 Z M363.694,359.4 L363.7,359.4 L363.7,351.61 L363.694,351.61 L363.694,359.4 Z M363.694,376.53 L363.7,376.53 L363.7,368.73 L363.694,368.73 L363.694,376.53 Z M363.694,393.65 L363.7,393.65 L363.7,385.86 L363.694,385.86 L363.694,393.65 Z M363.694,410.78 L363.7,410.78 L363.7,402.99 L363.694,402.99 L363.694,410.78 Z M363.694,427.91 L363.7,427.91 L363.7,420.12 L363.694,420.12 L363.694,427.91 Z M363.694,445.03 L363.7,445.03 L363.7,437.24 L363.694,437.24 L363.694,445.03 Z M339.906,373.23 L340.406,373.23 L340.406,366.8 L339.906,366.8 L339.906,373.23 Z M339.906,387.36 L340.406,387.36 L340.406,380.93 L339.906,380.93 L339.906,387.36 Z M339.906,401.49 L340.406,401.49 L340.406,395.06 L339.906,395.06 L339.906,401.49 Z M339.906,415.62 L340.406,415.62 L340.406,409.19 L339.906,409.19 L339.906,415.62 Z M339.906,429.75 L340.406,429.75 L340.406,423.32 L339.906,423.32 L339.906,429.75 Z M339.906,443.88 L340.406,443.88 L340.406,437.45 L339.906,437.45 L339.906,443.88 Z M339.906,458.01 L340.406,458.01 L340.406,451.58 L339.906,451.58 L339.906,458.01 Z M310.796,310.86 L320.743,310.86 L320.743,299.88 L310.796,299.88 L310.796,310.86 Z M313.005,366.81 L320.743,366.81 L320.743,366.8 L313.005,366.8 L313.005,366.81 Z M313.005,415.62 L320.743,415.62 L320.743,411.76 L313.005,411.76 L313.005,415.62 Z M288.642,286.4 L298.588,286.4 L298.588,275.42 L288.642,275.42 L288.642,286.4 Z M292.41,342.35 L298.588,342.35 L298.588,331.36 L292.41,331.36 L292.41,342.35 Z M292.41,398.28 L298.588,398.28 L298.588,387.3 L292.41,387.3 L292.41,398.28 Z M292.41,454.23 L298.588,454.23 L298.588,443.24 L292.41,443.24 L292.41,454.23 Z M266.488,261.941 L276.435,261.941 L276.435,250.958 L266.488,250.958 L266.488,261.941 Z M266.576,317.88 L276.435,317.88 L276.435,306.9 L266.576,306.9 L266.576,317.88 Z M244.335,237.479 L254.281,237.479 L254.281,226.497 L244.335,226.497 L244.335,237.479 Z M248.025,341.27 L254.281,341.27 L254.281,338.38 L248.025,338.38 L248.025,341.27 Z M228.845,321.09 L235.831,321.09 L235.831,312.03 L228.845,312.03 L228.845,321.09 Z M228.845,367.24 L235.831,367.24 L235.831,358.18 L228.845,358.18 L228.845,367.24 Z M228.845,413.39 L235.831,413.39 L235.831,404.33 L228.845,404.33 L228.845,413.39 Z M228.845,459.54 L235.831,459.54 L235.831,450.48 L228.845,450.48 L228.845,459.54 Z M209.665,300.91 L218.276,300.91 L218.276,295.67 L209.665,295.67 L209.665,300.91 Z M209.665,340.32 L218.276,340.32 L218.276,338 L209.665,338 L209.665,340.32 Z M209.665,393.21 L218.276,393.21 L218.276,384.15 L209.665,384.15 L209.665,393.21 Z M178.325,311.36 L192.541,311.36 L192.541,295.67 L178.325,295.67 L178.325,311.36 Z M178.325,340.32 L192.541,340.32 L192.541,324.62 L178.325,324.62 L178.325,340.32 Z M178.325,361.86 L187.526,361.86 L187.526,353.58 L178.325,353.58 L178.325,361.86 Z M178.325,385.75 L187.526,385.75 L187.526,382.53 L178.325,382.53 L178.325,385.75 Z M178.325,398.23 L187.526,398.23 L187.526,396.69 L178.325,396.69 L178.325,398.23 Z M178.325,427.18 L187.526,427.18 L187.526,420.57 L178.325,420.57 L178.325,427.18 Z M178.325,456.14 L187.526,456.14 L187.526,444.46 L178.325,444.46 L178.325,456.14 Z M152.514,361.86 L164.822,361.86 L164.822,348.91 L152.514,348.91 L152.514,361.86 Z M152.514,385.75 L164.822,385.75 L164.822,372.8 L152.514,372.8 L152.514,385.75 Z M152.514,409.63 L164.822,409.63 L164.822,396.69 L152.514,396.69 L152.514,409.63 Z M152.514,433.52 L164.822,433.52 L164.822,420.57 L152.514,420.57 L152.514,433.52 Z M152.514,457.41 L164.822,457.41 L164.822,444.46 L152.514,444.46 L152.514,457.41 Z M152.514,481.3 L164.292,481.3 L164.292,468.35 L152.514,468.35 L152.514,481.3 Z M1688.324,460.88 L1676.664,460.88 L1676.664,409.49 L1614.724,409.49 L1614.724,129.059 L1574.034,129.059 L1574.034,260.958 L1468.184,260.958 L1468.184,220.428 L1406.234,220.428 L1406.234,260.958 L1396.134,260.958 L1396.134,211.463 L1360.904,211.463 L1360.904,320.28 L1339.444,320.28 L1339.444,101.405 L1232.194,101.405 L1232.194,190.57 L1199.154,190.57 L1199.154,0 L1167.454,0 L1167.454,354.93 L1157.804,354.93 L1157.804,188.65 L1141.864,188.65 L1141.864,52.415 L1071.334,52.415 L1071.334,149.758 L1036.344,149.758 L1036.344,104.994 L1008.894,104.994 L1008.894,149.758 L992.674,149.758 L947.914,148.234 L925.674,148.234 L925.674,228.54 L893.137,228.54 L893.137,244.14 L925.674,244.14 L925.674,354.93 L882.809,354.93 L882.809,244.484 L842.121,244.484 L842.121,348.91 L818.815,348.91 L818.815,397.8 L808.993,397.8 L808.993,113.388 L689.941,113.388 L689.941,198.536 L632.578,198.536 L632.578,190.57 L590.82,190.57 L590.82,222.02 L579.97,222.02 L579.97,238.494 L565.725,238.494 L565.725,260.958 L579.97,260.958 L579.97,422.33 L579.266,460.88 L555.902,460.88 L555.902,320.28 L568.641,320.28 L568.641,301.74 L555.902,301.74 L555.902,288.15 L545.802,288.15 L545.802,262.208 L541.859,190.57 L525.705,190.57 L530.903,168.667 L463.088,168.667 L463.088,190.57 L452.132,190.57 L452.132,244.14 L444.853,244.14 L444.853,236.247 L422.248,236.247 L422.248,244.14 L399.06,244.14 L399.06,262.208 L389.574,262.208 L389.574,298.1 L358.273,298.1 L358.273,460.88 L347.275,460.88 L347.275,350.92 L339.906,350.92 L339.906,264.691 L310.067,264.691 L310.067,211.537 L235.831,211.537 L235.831,279.51 L202.302,279.51 L202.302,287.91 L170.767,287.91 L170.767,342.51 L145.971,342.51 L145.971,443.5 L62.899,443.5 L62.899,524.37 L0,524.37 L0,590.26 L140.364,590.26 L140.364,592.83 L1459.854,592.83 L1653.184,591.33 L1818.024,592.54 L1818.024,519.65 L1688.324,519.65 L1688.324,460.88 Z" id="Fill-9" fill="#000000"></path>
    </g>
</svg>