<?xml version="1.0" encoding="UTF-8"?>
<svg width="801px" height="174px" viewBox="0 0 801 174" version="1.1" xmlns="http://www.w3.org/2000/svg" xmlns:xlink="http://www.w3.org/1999/xlink">
    <!-- Generator: Sketch 40.3 (33839) - http://www.bohemiancoding.com/sketch -->
    <title>Slice 1</title>
    <desc>Created with Sketch.</desc>
    <defs>
        <polygon id="path-1" points="0.06 0.192 0.06 173.264 800 173.264 800 0.192 0.06 0.192"></polygon>
    </defs>
    <g id="Page-1" stroke="none" stroke-width="1" fill="none" fill-rule="evenodd">
        <g id="Group-126" transform="translate(0.000000, -1.000000)">
            <mask id="mask-2" fill="white">
                <use xlink:href="#path-1"></use>
            </mask>
            <g id="Clip-123"></g>
            <polygon id="Fill-124" fill="#4EB16A" mask="url(#mask-2)" points="0.06 173.264 800 173.264 800 125.935 0.06 125.935"></polygon>
            <path d="M220.88,125.94 L0,125.94 L0,95.9 C16.95,84.86 35.65,74.99 69.05,74.99 C144.97,74.99 144.97,125.94 220.88,125.94" id="Fill-125" fill="#4EB16A" mask="url(#mask-2)"></path>
        </g>
        <path d="M69,125.943 L220.826,125.943 C144.914,125.943 144.914,75 69.001,75 L69,75 L69,125.943" id="Fill-127" fill="#3A954F"></path>
        <path d="M415.284,127.142 C318.214,127.142 318.214,62 221.143,62 C124.071,62 124.071,127.142 27,127.142 L415.284,127.142" id="Fill-128" fill="#4EB16A"></path>
        <path d="M799.63,74.76 L799.63,126.75 L616,126.75 C696.09,126.75 696.09,73 776.19,73 C784.88,73 792.63,73.63 799.63,74.76" id="Fill-130" fill="#4EB16A"></path>
        <path d="M799.44,73.76 L799.44,125.75 L776,125.75 L776,72 C784.69,72 792.44,72.63 799.44,73.76" id="Fill-131" fill="#3A954F"></path>
        <path d="M164,109 L164,140.99 C164,142.098 165.362,142.995 167.042,142.995 C168.722,142.995 170.084,142.098 170.084,140.99 L170.084,109 L164,109" id="Fill-132" fill="#614540"></path>
        <path d="M170.042,109 L170.042,140.99 C170.042,142.098 168.68,142.995 167,142.995 L167,109 L170.042,109" id="Fill-133" fill="#3F2D2C"></path>
        <path d="M187.342,89.963 C187.342,110.929 178.311,127.925 167.171,127.925 C156.031,127.925 147,110.929 147,89.963 C147,68.997 156.031,52 167.171,52 C178.311,52 187.342,68.997 187.342,89.963" id="Fill-134" fill="#347546"></path>
        <path d="M167,52 L167,127.925 C178.14,127.925 187.171,110.929 187.171,89.963 C187.171,68.997 178.14,52 167,52" id="Fill-135" fill="#2C5638"></path>
        <path d="M159.884,112.942 C159.884,114.015 159.014,114.884 157.942,114.884 C156.869,114.884 156,114.015 156,112.942 C156,111.87 156.869,111 157.942,111 C159.014,111 159.884,111.87 159.884,112.942" id="Fill-136" fill="#2C5638"></path>
        <path d="M164.884,98.942 C164.884,100.015 164.014,100.884 162.942,100.884 C161.869,100.884 161,100.015 161,98.942 C161,97.87 161.869,97 162.942,97 C164.014,97 164.884,97.87 164.884,98.942" id="Fill-137" fill="#2C5638"></path>
        <path d="M152.884,88.942 C152.884,90.014 152.015,90.884 150.942,90.884 C149.87,90.884 149,90.014 149,88.942 C149,87.869 149.87,87 150.942,87 C152.015,87 152.884,87.869 152.884,88.942" id="Fill-138" fill="#2C5638"></path>
        <path d="M162.884,74.942 C162.884,76.015 162.014,76.884 160.942,76.884 C159.869,76.884 159,76.015 159,74.942 C159,73.87 159.869,73 160.942,73 C162.014,73 162.884,73.87 162.884,74.942" id="Fill-139" fill="#2C5638"></path>
        <path d="M172.884,59.942 C172.884,61.014 172.014,61.884 170.942,61.884 C169.869,61.884 169,61.014 169,59.942 C169,58.869 169.869,58 170.942,58 C172.014,58 172.884,58.869 172.884,59.942" id="Fill-140" fill="#347546"></path>
        <path d="M180.884,69.942 C180.884,71.015 180.014,71.884 178.942,71.884 C177.869,71.884 177,71.015 177,69.942 C177,68.869 177.869,68 178.942,68 C180.014,68 180.884,68.869 180.884,69.942" id="Fill-141" fill="#347546"></path>
        <path d="M172.884,80.941 C172.884,82.014 172.014,82.884 170.942,82.884 C169.869,82.884 169,82.014 169,80.941 C169,79.869 169.869,79 170.942,79 C172.014,79 172.884,79.869 172.884,80.941" id="Fill-142" fill="#347546"></path>
        <path d="M180.884,87.941 C180.884,89.014 180.014,89.883 178.942,89.883 C177.869,89.883 177,89.014 177,87.941 C177,86.869 177.869,86 178.942,86 C180.014,86 180.884,86.869 180.884,87.941" id="Fill-143" fill="#347546"></path>
        <path d="M171.884,102.942 C171.884,104.015 171.015,104.884 169.942,104.884 C168.87,104.884 168,104.015 168,102.942 C168,101.87 168.87,101 169.942,101 C171.015,101 171.884,101.87 171.884,102.942" id="Fill-144" fill="#347546"></path>
        <path d="M178.883,115.942 C178.883,117.015 178.014,117.884 176.942,117.884 C175.869,117.884 175,117.015 175,115.942 C175,114.87 175.869,114 176.942,114 C178.014,114 178.883,114.87 178.883,115.942" id="Fill-145" fill="#347546"></path>
        <path d="M159.884,63.942 C159.884,65.014 159.014,65.884 157.942,65.884 C156.869,65.884 156,65.014 156,63.942 C156,62.869 156.869,62 157.942,62 C159.014,62 159.884,62.869 159.884,63.942" id="Fill-146" fill="#2C5638"></path>
        <path d="M90,88 L90,131.701 C90,133.214 91.861,134.44 94.156,134.44 C96.451,134.44 98.312,133.214 98.312,131.701 L98.312,88 L90,88" id="Fill-147" fill="#614540"></path>
        <path d="M98.156,88 L98.156,131.701 C98.156,133.214 96.295,134.44 94,134.44 L94,88 L98.156,88" id="Fill-148" fill="#3F2D2C"></path>
        <path d="M121.112,61.861 C121.112,90.502 108.775,113.721 93.556,113.721 C78.337,113.721 66,90.502 66,61.861 C66,33.219 78.337,10 93.556,10 C108.775,10 121.112,33.219 121.112,61.861" id="Fill-149" fill="#347546"></path>
        <path d="M94,10 L94,113.721 C109.219,113.721 121.556,90.502 121.556,61.861 C121.556,33.219 109.219,10 94,10" id="Fill-150" fill="#2C5638"></path>
        <path d="M83.305,92.653 C83.305,94.118 82.118,95.305 80.653,95.305 C79.187,95.305 78,94.118 78,92.653 C78,91.187 79.187,90 80.653,90 C82.118,90 83.305,91.187 83.305,92.653" id="Fill-151" fill="#2C5638"></path>
        <path d="M91.306,73.653 C91.306,75.118 90.118,76.306 88.653,76.306 C87.188,76.306 86,75.118 86,73.653 C86,72.188 87.188,71 88.653,71 C90.118,71 91.306,72.188 91.306,73.653" id="Fill-152" fill="#2C5638"></path>
        <path d="M74.305,59.653 C74.305,61.118 73.118,62.306 71.652,62.306 C70.187,62.306 69,61.118 69,59.653 C69,58.188 70.187,57 71.652,57 C73.118,57 74.305,58.188 74.305,59.653" id="Fill-153" fill="#2C5638"></path>
        <path d="M88.305,41.653 C88.305,43.118 87.118,44.306 85.652,44.306 C84.187,44.306 83,43.118 83,41.653 C83,40.188 84.187,39 85.652,39 C87.118,39 88.305,40.188 88.305,41.653" id="Fill-154" fill="#2C5638"></path>
        <path d="M102.306,20.653 C102.306,22.118 101.118,23.306 99.653,23.306 C98.188,23.306 97,22.118 97,20.653 C97,19.188 98.188,18 99.653,18 C101.118,18 102.306,19.188 102.306,20.653" id="Fill-155" fill="#347546"></path>
        <path d="M113.306,34.653 C113.306,36.118 112.118,37.306 110.653,37.306 C109.188,37.306 108,36.118 108,34.653 C108,33.188 109.188,32 110.653,32 C112.118,32 113.306,33.188 113.306,34.653" id="Fill-156" fill="#347546"></path>
        <path d="M102.306,49.653 C102.306,51.118 101.118,52.306 99.653,52.306 C98.188,52.306 97,51.118 97,49.653 C97,48.187 98.188,47 99.653,47 C101.118,47 102.306,48.187 102.306,49.653" id="Fill-157" fill="#347546"></path>
        <path d="M113.306,58.653 C113.306,60.118 112.118,61.305 110.653,61.305 C109.188,61.305 108,60.118 108,58.653 C108,57.187 109.188,56 110.653,56 C112.118,56 113.306,57.187 113.306,58.653" id="Fill-158" fill="#347546"></path>
        <path d="M101.306,78.653 C101.306,80.118 100.118,81.306 98.653,81.306 C97.188,81.306 96,80.118 96,78.653 C96,77.188 97.188,76 98.653,76 C100.118,76 101.306,77.188 101.306,78.653" id="Fill-159" fill="#347546"></path>
        <path d="M109.305,97.653 C109.305,99.118 108.118,100.306 106.652,100.306 C105.187,100.306 104,99.118 104,97.653 C104,96.188 105.187,95 106.652,95 C108.118,95 109.305,96.188 109.305,97.653" id="Fill-160" fill="#347546"></path>
        <path d="M83.305,25.653 C83.305,27.118 82.118,28.306 80.653,28.306 C79.187,28.306 78,27.118 78,25.653 C78,24.188 79.187,23 80.653,23 C82.118,23 83.305,24.188 83.305,25.653" id="Fill-161" fill="#2C5638"></path>
        <path d="M696,100 L696,137.481 C696,138.778 697.595,139.829 699.564,139.829 C701.533,139.829 703.128,138.778 703.128,137.481 L703.128,100 L696,100" id="Fill-162" fill="#614540"></path>
        <path d="M703.564,100 L703.564,137.481 C703.564,138.778 701.969,139.829 700,139.829 L700,100 L703.564,100" id="Fill-163" fill="#3F2D2C"></path>
        <path d="M723.266,77.478 C723.266,102.043 712.685,121.956 699.633,121.956 C686.581,121.956 676,102.043 676,77.478 C676,52.914 686.581,33 699.633,33 C712.685,33 723.266,52.914 723.266,77.478" id="Fill-164" fill="#347546"></path>
        <path d="M700,33 L700,121.956 C713.052,121.956 723.633,102.043 723.633,77.478 C723.633,52.914 713.052,33 700,33" id="Fill-165" fill="#2C5638"></path>
        <path d="M691.551,104.275 C691.551,105.532 690.532,106.551 689.275,106.551 C688.019,106.551 687,105.532 687,104.275 C687,103.019 688.019,102 689.275,102 C690.532,102 691.551,103.019 691.551,104.275" id="Fill-166" fill="#2C5638"></path>
        <path d="M697.551,88.275 C697.551,89.531 696.532,90.55 695.276,90.55 C694.019,90.55 693,89.531 693,88.275 C693,87.018 694.019,86 695.276,86 C696.532,86 697.551,87.018 697.551,88.275" id="Fill-167" fill="#2C5638"></path>
        <path d="M682.551,76.276 C682.551,77.532 681.532,78.551 680.276,78.551 C679.019,78.551 678,77.532 678,76.276 C678,75.019 679.019,74 680.276,74 C681.532,74 682.551,75.019 682.551,76.276" id="Fill-168" fill="#2C5638"></path>
        <path d="M694.551,60.275 C694.551,61.532 693.532,62.55 692.275,62.55 C691.019,62.55 690,61.532 690,60.275 C690,59.018 691.019,58 692.275,58 C693.532,58 694.551,59.018 694.551,60.275" id="Fill-169" fill="#2C5638"></path>
        <path d="M706.551,43.275 C706.551,44.532 705.532,45.551 704.275,45.551 C703.019,45.551 702,44.532 702,43.275 C702,42.019 703.019,41 704.275,41 C705.532,41 706.551,42.019 706.551,43.275" id="Fill-170" fill="#347546"></path>
        <path d="M716.55,54.276 C716.55,55.532 715.532,56.551 714.275,56.551 C713.019,56.551 712,55.532 712,54.276 C712,53.019 713.019,52 714.275,52 C715.532,52 716.55,53.019 716.55,54.276" id="Fill-171" fill="#347546"></path>
        <path d="M706.551,67.275 C706.551,68.531 705.532,69.55 704.275,69.55 C703.019,69.55 702,68.531 702,67.275 C702,66.018 703.019,65 704.275,65 C705.532,65 706.551,66.018 706.551,67.275" id="Fill-172" fill="#347546"></path>
        <path d="M716.55,75.275 C716.55,76.532 715.532,77.551 714.275,77.551 C713.019,77.551 712,76.532 712,75.275 C712,74.019 713.019,73 714.275,73 C715.532,73 716.55,74.019 716.55,75.275" id="Fill-173" fill="#347546"></path>
        <path d="M706.551,93.275 C706.551,94.532 705.532,95.551 704.275,95.551 C703.019,95.551 702,94.532 702,93.275 C702,92.019 703.019,91 704.275,91 C705.532,91 706.551,92.019 706.551,93.275" id="Fill-174" fill="#347546"></path>
        <path d="M713.55,108.275 C713.55,109.532 712.532,110.551 711.275,110.551 C710.018,110.551 709,109.532 709,108.275 C709,107.019 710.018,106 711.275,106 C712.532,106 713.55,107.019 713.55,108.275" id="Fill-175" fill="#347546"></path>
        <path d="M691.551,47.275 C691.551,48.532 690.532,49.55 689.275,49.55 C688.019,49.55 687,48.532 687,47.275 C687,46.019 688.019,45 689.275,45 C690.532,45 691.551,46.019 691.551,47.275" id="Fill-176" fill="#2C5638"></path>
        <path d="M343.766,139 C339.477,139 336,142.477 336,146.766 L351.531,146.766 C351.531,142.477 348.055,139 343.766,139" id="Fill-177" fill="#347546"></path>
        <path d="M351.104,142 C348.285,142 346,144.285 346,147.104 L356.207,147.104 C356.207,144.285 353.922,142 351.104,142" id="Fill-178" fill="#2C5638"></path>
        <path d="M761,102 L761,155.363 C761,157.21 763.272,158.707 766.075,158.707 C768.878,158.707 771.15,157.21 771.15,155.363 L771.15,102 L761,102" id="Fill-179" fill="#614540"></path>
        <path d="M771.075,102 L771.075,155.363 C771.075,157.21 768.803,158.707 766,158.707 L766,102 L771.075,102" id="Fill-180" fill="#3F2D2C"></path>
        <path d="M800.296,69.325 C800.296,104.299 785.232,132.65 766.648,132.65 C748.065,132.65 733,104.299 733,69.325 C733,34.351 748.065,6 766.648,6 C785.232,6 800.296,34.351 800.296,69.325" id="Fill-181" fill="#347546"></path>
        <path d="M766,6 L766,132.65 C784.584,132.65 799.648,104.299 799.648,69.325 C799.648,34.351 784.584,6 766,6" id="Fill-182" fill="#2C5638"></path>
        <path d="M753.479,108.239 C753.479,110.028 752.028,111.479 750.239,111.479 C748.45,111.479 747,110.028 747,108.239 C747,106.45 748.45,105 750.239,105 C752.028,105 753.479,106.45 753.479,108.239" id="Fill-183" fill="#2C5638"></path>
        <path d="M762.478,84.24 C762.478,86.029 761.028,87.479 759.239,87.479 C757.45,87.479 756,86.029 756,84.24 C756,82.451 757.45,81 759.239,81 C761.028,81 762.478,82.451 762.478,84.24" id="Fill-184" fill="#2C5638"></path>
        <path d="M742.479,67.239 C742.479,69.028 741.028,70.479 739.239,70.479 C737.45,70.479 736,69.028 736,67.239 C736,65.45 737.45,64 739.239,64 C741.028,64 742.479,65.45 742.479,67.239" id="Fill-185" fill="#2C5638"></path>
        <path d="M759.479,44.239 C759.479,46.028 758.029,47.479 756.24,47.479 C754.45,47.479 753,46.028 753,44.239 C753,42.45 754.45,41 756.24,41 C758.029,41 759.479,42.45 759.479,44.239" id="Fill-186" fill="#2C5638"></path>
        <path d="M776.479,20.239 C776.479,22.028 775.029,23.479 773.24,23.479 C771.451,23.479 770,22.028 770,20.239 C770,18.45 771.451,17 773.24,17 C775.029,17 776.479,18.45 776.479,20.239" id="Fill-187" fill="#347546"></path>
        <path d="M789.479,36.239 C789.479,38.028 788.029,39.479 786.24,39.479 C784.451,39.479 783,38.028 783,36.239 C783,34.45 784.451,33 786.24,33 C788.029,33 789.479,34.45 789.479,36.239" id="Fill-188" fill="#347546"></path>
        <path d="M776.479,55.239 C776.479,57.028 775.029,58.479 773.24,58.479 C771.451,58.479 770,57.028 770,55.239 C770,53.45 771.451,52 773.24,52 C775.029,52 776.479,53.45 776.479,55.239" id="Fill-189" fill="#347546"></path>
        <path d="M789.479,65.239 C789.479,67.029 788.029,68.479 786.24,68.479 C784.451,68.479 783,67.029 783,65.239 C783,63.45 784.451,62 786.24,62 C788.029,62 789.479,63.45 789.479,65.239" id="Fill-190" fill="#347546"></path>
        <path d="M775.479,91.24 C775.479,93.029 774.028,94.479 772.239,94.479 C770.45,94.479 769,93.029 769,91.24 C769,89.451 770.45,88 772.239,88 C774.028,88 775.479,89.451 775.479,91.24" id="Fill-191" fill="#347546"></path>
        <path d="M785.479,113.239 C785.479,115.028 784.029,116.479 782.24,116.479 C780.451,116.479 779,115.028 779,113.239 C779,111.45 780.451,110 782.24,110 C784.029,110 785.479,111.45 785.479,113.239" id="Fill-192" fill="#347546"></path>
        <path d="M753.479,25.24 C753.479,27.029 752.028,28.479 750.239,28.479 C748.45,28.479 747,27.029 747,25.24 C747,23.451 748.45,22 750.239,22 C752.028,22 753.479,23.451 753.479,25.24" id="Fill-193" fill="#2C5638"></path>
        <path d="M771.104,153 C768.285,153 766,155.285 766,158.103 L776.207,158.103 C776.207,155.285 773.922,153 771.104,153" id="Fill-194" fill="#347546"></path>
        <path d="M781.607,150 C776.853,150 773,153.854 773,158.607 L790.213,158.607 C790.213,153.854 786.36,150 781.607,150" id="Fill-195" fill="#2C5638"></path>
        <path d="M533.178,146 C528.661,146 525,149.662 525,154.178 L541.356,154.178 C541.356,149.662 537.694,146 533.178,146" id="Fill-196" fill="#EFEDEA"></path>
        <path d="M541.178,154.178 C541.178,149.662 537.516,146 533,146 L533,154.178 L541.178,154.178" id="Fill-197" fill="#D3D2CB"></path>
        <path d="M147.179,140 C142.662,140 139,143.662 139,148.178 L155.357,148.178 C155.357,143.662 151.695,140 147.179,140" id="Fill-198" fill="#EFEDEA"></path>
        <path d="M155.178,148.178 C155.178,143.662 151.516,140 147,140 L147,148.178 L155.178,148.178" id="Fill-199" fill="#D3D2CB"></path>
        <path d="M635.308,128 C632.929,128 631,129.928 631,132.307 L639.616,132.307 C639.616,129.928 637.687,128 635.308,128" id="Fill-200" fill="#EFEDEA"></path>
        <path d="M639.308,132.307 C639.308,129.928 637.379,128 635,128 L635,132.307 L639.308,132.307" id="Fill-201" fill="#D3D2CB"></path>
        <path d="M199.307,133 C196.928,133 195,134.929 195,137.308 L203.615,137.308 C203.615,134.929 201.686,133 199.307,133" id="Fill-202" fill="#EFEDEA"></path>
        <path d="M203.308,137.308 C203.308,134.929 201.379,133 199,133 L199,137.308 L203.308,137.308" id="Fill-203" fill="#D3D2CB"></path>
        <path d="M718.271,136 C714.808,136 712,138.808 712,142.271 L724.542,142.271 C724.542,138.808 721.734,136 718.271,136" id="Fill-204" fill="#EFEDEA"></path>
        <path d="M724.271,142.271 C724.271,138.808 721.463,136 718,136 L718,142.271 L724.271,142.271" id="Fill-205" fill="#D3D2CB"></path>
        <path d="M268,63 L268,72.397 C268,72.723 268.4,72.986 268.894,72.986 C269.387,72.986 269.787,72.723 269.787,72.397 L269.787,63 L268,63" id="Fill-206" fill="#614540"></path>
        <path d="M268.893,63 L268.893,72.397 C268.893,72.723 268.493,72.986 268,72.986 L268,63 L268.893,63" id="Fill-207" fill="#503836"></path>
        <polyline id="Fill-208" fill="#347546" points="268.199 42 260 67.851 276.397 67.851 268.199 42"></polyline>
        <polyline id="Fill-209" fill="#2C5638" points="276.198 67.851 268 42 268 67.851 276.198 67.851"></polyline>
        <path d="M198,56 L198,62.869 C198,63.106 198.293,63.299 198.653,63.299 C199.014,63.299 199.306,63.106 199.306,62.869 L199.306,56 L198,56" id="Fill-210" fill="#614540"></path>
        <path d="M199.653,56 L199.653,62.869 C199.653,63.106 199.361,63.299 199,63.299 L199,56 L199.653,56" id="Fill-211" fill="#503836"></path>
        <polyline id="Fill-212" fill="#347546" points="198.992 41 193 59.894 204.984 59.894 198.992 41"></polyline>
        <polyline id="Fill-213" fill="#2C5638" points="204.992 59.894 199 41 199 59.894 204.992 59.894"></polyline>
        <path d="M324,104 L324,113.397 C324,113.722 324.4,113.986 324.894,113.986 C325.387,113.986 325.787,113.722 325.787,113.397 L325.787,104 L324,104" id="Fill-214" fill="#614540"></path>
        <path d="M325.893,104 L325.893,113.397 C325.893,113.722 325.493,113.986 325,113.986 L325,104 L325.893,104" id="Fill-215" fill="#503836"></path>
        <polyline id="Fill-216" fill="#347546" points="325.199 83 317 108.851 333.398 108.851 325.199 83"></polyline>
        <polyline id="Fill-217" fill="#2C5638" points="333.199 108.851 325 83 325 108.851 333.199 108.851"></polyline>
        <path d="M659,115 L659,124.397 C659,124.722 659.4,124.986 659.893,124.986 C660.387,124.986 660.787,124.722 660.787,124.397 L660.787,115 L659,115" id="Fill-218" fill="#614540"></path>
        <path d="M660.894,115 L660.894,124.397 C660.894,124.722 660.494,124.986 660,124.986 L660,115 L660.894,115" id="Fill-219" fill="#503836"></path>
        <polyline id="Fill-220" fill="#347546" points="660.199 94 652 119.851 668.398 119.851 660.199 94"></polyline>
        <polyline id="Fill-221" fill="#2C5638" points="668.199 119.851 660 94 660 119.851 668.199 119.851"></polyline>
        <path d="M130,88 L130,97.397 C130,97.722 130.4,97.986 130.894,97.986 C131.387,97.986 131.787,97.722 131.787,97.397 L131.787,88 L130,88" id="Fill-222" fill="#614540"></path>
        <path d="M130.893,88 L130.893,97.397 C130.893,97.722 130.493,97.986 130,97.986 L130,88 L130.893,88" id="Fill-223" fill="#503836"></path>
        <polyline id="Fill-224" fill="#347546" points="130.199 68 122 93.851 138.397 93.851 130.199 68"></polyline>
        <polyline id="Fill-225" fill="#2C5638" points="138.198 93.851 130 68 130 93.851 138.198 93.851"></polyline>
        <path d="M12,87 L12,96.397 C12,96.722 12.4,96.986 12.893,96.986 C13.387,96.986 13.787,96.722 13.787,96.397 L13.787,87 L12,87" id="Fill-226" fill="#614540"></path>
        <path d="M13.894,87 L13.894,96.397 C13.894,96.722 13.494,96.986 13,96.986 L13,87 L13.894,87" id="Fill-227" fill="#503836"></path>
        <polyline id="Fill-228" fill="#347546" points="13.198 66 5 91.851 21.397 91.851 13.198 66"></polyline>
        <polyline id="Fill-229" fill="#2C5638" points="21.199 91.851 13 66 13 91.851 21.199 91.851"></polyline>
        <path d="M232,101 L232,115.695 C232,116.203 232.626,116.616 233.398,116.616 C234.169,116.616 234.795,116.203 234.795,115.695 L234.795,101 L232,101" id="Fill-230" fill="#614540"></path>
        <path d="M234.397,101 L234.397,115.695 C234.397,116.203 233.771,116.616 233,116.616 L233,101 L234.397,101" id="Fill-231" fill="#503836"></path>
        <polyline id="Fill-232" fill="#347546" points="233.821 69 221 109.424 246.641 109.424 233.821 69"></polyline>
        <polyline id="Fill-233" fill="#2C5638" points="245.82 109.424 233 69 233 109.424 245.82 109.424"></polyline>
        <path d="M31,106 L31,133.975 C31,134.943 32.191,135.728 33.66,135.728 C35.13,135.728 36.321,134.943 36.321,133.975 L36.321,106 L31,106" id="Fill-234" fill="#614540"></path>
        <path d="M36.661,106 L36.661,133.975 C36.661,134.943 35.47,135.728 34,135.728 L34,106 L36.661,106" id="Fill-235" fill="#3F2D2C"></path>
        <path d="M51.279,89.198 C51.279,107.532 43.381,122.395 33.639,122.395 C23.897,122.395 16,107.532 16,89.198 C16,70.863 23.897,56 33.639,56 C43.381,56 51.279,70.863 51.279,89.198" id="Fill-236" fill="#347546"></path>
        <path d="M34,56 L34,122.395 C43.742,122.395 51.64,107.532 51.64,89.198 C51.64,70.863 43.742,56 34,56" id="Fill-237" fill="#2C5638"></path>
        <path d="M27.396,109.698 C27.396,110.636 26.636,111.396 25.698,111.396 C24.76,111.396 24,110.636 24,109.698 C24,108.76 24.76,108 25.698,108 C26.636,108 27.396,108.76 27.396,109.698" id="Fill-238" fill="#2C5638"></path>
        <path d="M32.396,96.698 C32.396,97.636 31.636,98.396 30.698,98.396 C29.76,98.396 29,97.636 29,96.698 C29,95.76 29.76,95 30.698,95 C31.636,95 32.396,95.76 32.396,96.698" id="Fill-239" fill="#2C5638"></path>
        <path d="M21.396,87.698 C21.396,88.636 20.636,89.396 19.698,89.396 C18.76,89.396 18,88.636 18,87.698 C18,86.76 18.76,86 19.698,86 C20.636,86 21.396,86.76 21.396,87.698" id="Fill-240" fill="#2C5638"></path>
        <path d="M30.397,76.698 C30.397,77.636 29.636,78.396 28.699,78.396 C27.761,78.396 27,77.636 27,76.698 C27,75.76 27.761,75 28.699,75 C29.636,75 30.397,75.76 30.397,76.698" id="Fill-241" fill="#2C5638"></path>
        <path d="M39.397,63.698 C39.397,64.636 38.637,65.396 37.699,65.396 C36.761,65.396 36,64.636 36,63.698 C36,62.76 36.761,62 37.699,62 C38.637,62 39.397,62.76 39.397,63.698" id="Fill-242" fill="#347546"></path>
        <path d="M46.397,71.699 C46.397,72.637 45.636,73.397 44.698,73.397 C43.76,73.397 43,72.637 43,71.699 C43,70.761 43.76,70 44.698,70 C45.636,70 46.397,70.761 46.397,71.699" id="Fill-243" fill="#347546"></path>
        <path d="M39.397,81.698 C39.397,82.636 38.637,83.396 37.699,83.396 C36.761,83.396 36,82.636 36,81.698 C36,80.76 36.761,80 37.699,80 C38.637,80 39.397,80.76 39.397,81.698" id="Fill-244" fill="#347546"></path>
        <path d="M46.397,86.698 C46.397,87.636 45.636,88.397 44.698,88.397 C43.76,88.397 43,87.636 43,86.698 C43,85.76 43.76,85 44.698,85 C45.636,85 46.397,85.76 46.397,86.698" id="Fill-245" fill="#347546"></path>
        <path d="M38.396,100.699 C38.396,101.636 37.636,102.397 36.698,102.397 C35.76,102.397 35,101.636 35,100.699 C35,99.761 35.76,99 36.698,99 C37.636,99 38.396,99.761 38.396,100.699" id="Fill-246" fill="#347546"></path>
        <path d="M44.396,111.698 C44.396,112.636 43.636,113.397 42.698,113.397 C41.76,113.397 41,112.636 41,111.698 C41,110.76 41.76,110 42.698,110 C43.636,110 44.396,110.76 44.396,111.698" id="Fill-247" fill="#347546"></path>
        <path d="M27.396,66.698 C27.396,67.636 26.636,68.397 25.698,68.397 C24.76,68.397 24,67.636 24,66.698 C24,65.76 24.76,65 25.698,65 C26.636,65 27.396,65.76 27.396,66.698" id="Fill-248" fill="#2C5638"></path>
        <path d="M29.546,134 C27.036,134 25,136.035 25,138.546 L34.092,138.546 C34.092,136.035 32.057,134 29.546,134" id="Fill-249" fill="#347546"></path>
        <path d="M38.666,131 C34.432,131 31,134.433 31,138.667 L46.334,138.667 C46.334,134.433 42.901,131 38.666,131" id="Fill-250" fill="#2C5638"></path>
    </g>
</svg>