<?xml version="1.0" encoding="UTF-8"?>
<svg width="579px" height="150px" viewBox="0 0 579 150" version="1.1" xmlns="http://www.w3.org/2000/svg" xmlns:xlink="http://www.w3.org/1999/xlink">
    <!-- Generator: Sketch 40.3 (33839) - http://www.bohemiancoding.com/sketch -->
    <title>Slice 1</title>
    <desc>Created with Sketch.</desc>
    <defs>
        <polygon id="path-1" points="0.0229193878 0.350529364 0.0229193878 149.736238 149.733029 149.736238 149.733029 0.350529364 0.0229193878 0.350529364"></polygon>
        <polygon id="path-3" points="88.4474611 39.0012086 88.4474611 77.941469 0 77.941469 0 39.0012086 0 0.0609482229 88.4474611 0.0609482229 88.4474611 39.0012086"></polygon>
    </defs>
    <g id="Page-1" stroke="none" stroke-width="1" fill="none" fill-rule="evenodd">
        <g id="speech-bubble-copy-3">
            <mask id="mask-2" fill="white">
                <use xlink:href="#path-1"></use>
            </mask>
            <g id="Clip-2"></g>
            <path d="M26.1827266,26.503449 C39.1703796,13.5491029 56.4657316,6.38573059 74.8623602,6.38573059 C93.2593708,6.38573059 110.526456,13.5178601 123.543904,26.503449 C150.375631,53.2648419 150.375631,96.8219255 123.543904,123.614942 C110.556251,136.569288 93.2593708,143.73228 74.8623602,143.73228 C62.5775684,143.73228 50.537632,140.471594 39.9954776,134.283227 C39.5061487,134.009281 38.9866426,133.855734 38.4675184,133.855734 C37.7944524,133.855734 37.1530915,134.070242 36.6022622,134.495831 C27.0987381,141.842088 17.1670034,142.939016 12.0953249,142.939016 C10.6269561,142.939016 9.19143847,142.848336 7.81589321,142.665451 C14.4170589,139.221119 19.764916,132.851391 23.7685511,123.736865 C24.2265568,122.669656 24.0428197,121.421086 23.2490449,120.536761 C-0.771619388,93.4389361 0.513394286,52.1381948 26.1827266,26.503449 L26.1827266,26.503449 Z" id="Fill-3" fill="#FFFFFF" mask="url(#mask-2)"></path>
        </g>
        <text id="Reactalk-Copy-2" font-family="PTSans-Regular, PT Sans" font-size="113" font-weight="normal" letter-spacing="-0.588541746">
            <tspan x="176" y="114" fill="#353535">Reac</tspan>
            <tspan x="399.871833" y="114" fill="#FFFFFF">talk</tspan>
        </text>
        <g id="React-01-Copy-2" transform="translate(31.000000, 36.000000)">
            <mask id="mask-4" fill="white">
                <use xlink:href="#path-3"></use>
            </mask>
            <g id="Clip-2"></g>
            <path d="M44.2237306,31.1166215 C48.5855232,31.1166215 52.1217254,34.6169596 52.1217254,38.9347549 C52.1217254,43.2523102 48.5855232,46.7526483 44.2237306,46.7526483 C39.861938,46.7526483 36.3257358,43.2523102 36.3257358,38.9347549 C36.3257358,34.6169596 39.861938,31.1166215 44.2237306,31.1166215 L44.2237306,31.1166215 Z M64.3609154,4.29236963 C67.3228149,5.98317228 68.4745705,12.8015517 66.6137813,21.742969 C66.4950436,22.313366 66.361282,22.8945569 66.2161312,23.4834235 C62.546652,22.645338 58.5619121,22.0216912 54.3900998,21.6343105 C51.9598544,18.2085702 49.4414038,15.0939337 46.9132604,12.3976204 C47.592973,11.7504668 48.2717164,11.1332962 48.947552,10.550906 C55.4773978,4.92609081 61.5802726,2.7051883 64.3609154,4.29236963 L64.3609154,4.29236963 Z M56.566392,46.0580016 C55.1839461,48.430978 53.7644249,50.6962554 52.3235794,52.8346446 C49.6987496,53.0202995 46.9874108,53.1160053 44.2237306,53.1160053 C41.4711971,53.1160053 38.7940257,53.0313333 36.2157217,52.865827 C34.7167189,50.6993736 33.2664229,48.4273801 31.8927006,46.0783901 L31.8929429,46.0783901 C30.5228554,43.7358764 29.2618127,41.373454 28.119023,39.0244641 C29.261328,36.6699572 30.5192205,34.3048963 31.8813114,31.9664604 L31.8810691,31.9669401 C33.2470372,29.6225075 34.6844901,27.3615477 36.1699228,25.2087666 C38.8003261,25.0118381 41.4976102,24.9091762 44.2234882,24.9091762 L44.2237306,24.9091762 C46.961967,24.9091762 49.6628859,25.0127976 52.2925622,25.2111653 C53.7549744,27.3483552 55.1827345,29.6018792 56.5540336,31.9467915 C57.9408413,34.317849 59.2149694,36.6673187 60.3669673,38.9712142 C59.2183619,41.3149272 57.9471417,43.6879036 56.566392,46.0580016 L56.566392,46.0580016 Z M62.4048938,43.2878101 C63.5869395,45.95486 64.5836092,48.5355588 65.3747899,50.9893694 C62.8102981,51.5684016 60.0415291,52.0349374 57.1242168,52.3815412 C58.0423742,50.9411567 58.9489001,49.4551981 59.8394327,47.9265436 C60.7403852,46.3801392 61.5960235,44.8310963 62.4048938,43.2878101 L62.4048938,43.2878101 Z M44.3705776,63.0607745 C42.5795771,61.1480975 40.793423,59.0324954 39.0489483,56.756664 C40.7422931,56.8223868 42.468836,56.8562076 44.2237306,56.8562076 C46.0266048,56.8562076 47.8086394,56.8159104 49.562807,56.7386742 C47.8403836,59.0552825 46.1014823,61.1742427 44.3705776,63.0607745 L44.3705776,63.0607745 Z M31.4000603,52.4484633 C28.5028607,52.1284845 25.7714093,51.6950499 23.2483546,51.1515176 C24.0296001,48.6550112 24.99186,46.06088 26.1152639,43.4221341 C26.9071716,44.935917 27.7431819,46.4485005 28.62281,47.9522091 L28.6230524,47.9522091 C29.5189161,49.4842217 30.447251,50.9850519 31.4000603,52.4484633 L31.4000603,52.4484633 Z M28.6077861,30.0983981 C27.7337313,31.5989884 26.9008712,33.1110923 26.1111445,34.6258346 C25.0107611,32.0427372 24.0695832,29.5028153 23.3006961,27.050204 C25.8239931,26.4910806 28.5152191,26.0341393 31.3191248,25.6875355 C30.3903053,27.1219234 29.4845064,28.5934902 28.6077861,30.0981582 L28.6077861,30.0983981 L28.6077861,30.0983981 Z M44.2658946,15.0723459 C46.008673,16.9413677 47.754117,19.0279462 49.4707248,21.2920243 C47.7407893,21.2111901 45.9895296,21.1692138 44.2237306,21.1692138 C42.4746517,21.1692138 40.7362351,21.2102306 39.0169618,21.2896257 C40.7355081,19.0466556 42.4959761,16.9629555 44.2658946,15.0723459 L44.2658946,15.0723459 Z M59.8244088,30.0724927 C58.9491424,28.5762199 58.0506131,27.1152072 57.1346367,25.6942517 C59.9567165,26.0473318 62.6605433,26.5160264 65.1995912,27.0897816 C64.4372468,29.5080923 63.487103,32.0365007 62.3687878,34.6284731 C61.5664603,33.1209267 60.7178493,31.6006675 59.8244088,30.0724927 L59.8244088,30.0724927 Z M21.6720512,20.7472927 C20.0099659,12.3386138 21.1137417,5.99540536 23.891719,4.40366661 C26.8507106,2.70806667 33.3938842,5.12565782 40.2901206,11.1870258 C40.7311463,11.5744065 41.1736259,11.979777 41.6173172,12.3992994 C39.0474944,15.1308728 36.5082041,18.2404721 34.0828051,21.6290335 C29.9228666,22.0106574 25.9410345,22.6237503 22.2800366,23.4445655 C22.0498309,22.5282843 21.8460383,21.6278342 21.6720512,20.7472927 L21.6720512,20.7472927 Z M17.3953135,49.5633769 C13.08247,48.104283 9.52082397,46.2079167 7.07943172,44.1386084 C4.88593468,42.2789414 3.77828168,40.4327067 3.77828168,38.9347549 C3.77828168,35.7467199 8.57988837,31.6803024 16.5881396,28.9165872 C17.5598501,28.5812571 18.577117,28.2651161 19.6326708,27.9684041 C20.7393545,31.5320663 22.1913468,35.2578767 23.9433335,39.0256634 C22.1685686,42.8493384 20.6962213,46.6346351 19.5783907,50.2402736 C18.8259815,50.0260749 18.0968352,49.8006025 17.3953135,49.5633769 L17.3953135,49.5633769 Z M30.1537992,73.423627 C27.4303444,74.375648 25.2613219,74.4029925 23.9503609,73.6546162 C21.1605099,72.0616782 20.0005153,65.9132394 21.5826344,57.6657492 C21.7638912,56.7211641 21.9795576,55.7509134 22.2281798,54.759075 C25.8513755,55.5523059 29.8613168,56.1229428 34.147505,56.466908 C36.594713,59.8753781 39.1575085,63.008724 41.739932,65.7520507 C41.1758068,66.2912654 40.6136202,66.8045748 40.0548261,67.2883808 C36.623307,70.2574197 33.1842758,72.3641469 30.1537992,73.423627 L30.1537992,73.423627 Z M66.8897858,56.7094107 C67.7747451,61.1351448 67.9012371,65.1365592 67.3148183,68.2643882 C66.788253,71.0751168 65.728822,72.9491756 64.4188303,73.6997107 C61.6314025,75.2967264 55.6707706,73.2207019 49.2422153,67.7448424 C48.5050723,67.1171178 47.7628406,66.4469373 47.0181857,65.737419 C49.5104655,63.0394266 52.0012914,59.9029625 54.4322638,56.4194149 C58.7080322,56.0437876 62.7475368,55.4299751 66.4109579,54.5916498 C66.5912454,55.311962 66.7516624,56.0186019 66.8897858,56.7094107 L66.8897858,56.7094107 Z M70.5224321,49.584245 C70.0387578,49.7427953 69.5424827,49.8958286 69.0367571,50.0443046 C67.9174726,46.5365307 66.4065961,42.8066426 64.557923,38.9529845 C66.3220258,35.1909546 67.7745028,31.5085596 68.8625277,28.0235728 C69.7673573,28.282866 70.6455316,28.5560713 71.4917194,28.844628 C79.6763809,31.6335289 84.6689371,35.757274 84.6689371,38.9347549 C84.6689371,42.3192385 79.2772768,46.7128309 70.5224321,49.584245 L70.5224321,49.584245 Z M72.7215025,25.3080704 C71.8040722,24.9955274 70.8532014,24.6997748 69.8744636,24.4200932 C70.0353653,23.7700612 70.1829393,23.1284245 70.3142777,22.4978216 C72.4694879,12.1419252 71.0603865,3.798969 66.24836,1.05228419 C61.6340681,-1.58166445 54.0881669,1.16454063 46.4669036,7.72962343 C45.7341224,8.36094597 44.9991604,9.02944746 44.264683,9.72985089 C43.7751929,9.26643328 43.2864298,8.81860684 42.7991206,8.3902094 C34.8119514,1.3703441 26.8061234,-1.58814078 21.998701,1.16669941 C17.3890132,3.80808384 16.0240144,11.651163 17.9640428,21.465686 C18.1513576,22.4136292 18.3704165,23.3817211 18.6180694,24.3658839 C17.4849726,24.6844235 16.391132,25.0238313 15.3443017,25.3848269 C5.98025998,28.6165171 0,33.6812494 0,38.9347549 C0,44.3604828 6.41983175,49.8027613 16.1732847,53.1025729 C16.9428987,53.3630654 17.7415914,53.6091661 18.5647586,53.8430337 C18.2974777,54.9075509 18.0653334,55.9507203 17.8702643,56.9682242 C16.0203796,66.6122037 17.4648599,74.2701077 22.0624316,76.8947017 C26.8109699,79.6054068 34.7806919,76.8191444 42.5412902,70.1043864 C43.1546067,69.5735669 43.7701041,69.0108456 44.3868131,68.4207797 C45.1862328,69.1825883 45.9841985,69.9036201 46.7780448,70.5800371 C54.2948674,76.9829717 61.719123,79.5684678 66.312333,76.936438 C71.0562671,74.2180572 72.5979184,65.991675 70.5963403,55.983102 C70.4434352,55.2186548 70.265571,54.4378969 70.0658978,53.642987 C70.6254189,53.4791597 71.1750047,53.3100555 71.7107783,53.1344749 C81.8502498,49.8089978 88.4474611,44.4329218 88.4474611,38.9347549 C88.4474611,33.6623002 82.274313,28.5632673 72.7215025,25.3080704 L72.7215025,25.3080704 Z" id="Fill-1" fill="#53C1DE" mask="url(#mask-4)"></path>
        </g>
    </g>
</svg>