<?xml version="1.0" encoding="UTF-8"?>
<svg width="204px" height="203px" viewBox="0 0 204 203" version="1.1" xmlns="http://www.w3.org/2000/svg" xmlns:xlink="http://www.w3.org/1999/xlink">
    <!-- Generator: Sketch 40.3 (33839) - http://www.bohemiancoding.com/sketch -->
    <title>Slice 1</title>
    <desc>Created with Sketch.</desc>
    <defs></defs>
    <g id="Page-1" stroke="none" stroke-width="1" fill="none" fill-rule="evenodd">
        <polygon id="Fill-252" fill="#E0E9ED" points="21.552 195.406 182.621 195.406 182.621 28.369 21.552 28.369"></polygon>
        <polygon id="Fill-253" fill="#31221A" points="0.585 202.28 203.585 202.28 203.585 195.403 0.585 195.403"></polygon>
        <polygon id="Fill-254" fill="#953B2B" points="40.546 166.336 74.546 166.336 74.546 124.336 40.546 124.336"></polygon>
        <polygon id="Fill-255" fill="#81A8CD" points="43.084 163.66 72.009 163.66 72.009 127.013 43.084 127.013"></polygon>
        <polygon id="Fill-256" fill="#953B2B" points="56.296 163.66 58.796 163.66 58.796 127.013 56.296 127.013"></polygon>
        <polygon id="Fill-257" fill="#953B2B" points="42.984 146.586 72.109 146.586 72.109 144.086 42.984 144.086"></polygon>
        <polygon id="Fill-258" fill="#953B2B" points="130.88 166.336 164.88 166.336 164.88 124.336 130.88 124.336"></polygon>
        <polygon id="Fill-259" fill="#81A8CD" points="133.417 163.66 162.343 163.66 162.343 127.013 133.417 127.013"></polygon>
        <polygon id="Fill-260" fill="#953B2B" points="146.63 163.66 149.13 163.66 149.13 127.013 146.63 127.013"></polygon>
        <polygon id="Fill-261" fill="#953B2B" points="133.317 146.586 162.442 146.586 162.442 144.086 133.317 144.086"></polygon>
        <polygon id="Fill-262" fill="#953B2B" points="40.546 89.188 74.546 89.188 74.546 47.188 40.546 47.188"></polygon>
        <polygon id="Fill-263" fill="#81A8CD" points="43.084 86.512 72.009 86.512 72.009 49.864 43.084 49.864"></polygon>
        <polygon id="Fill-264" fill="#953B2B" points="56.296 86.512 58.796 86.512 58.796 49.864 56.296 49.864"></polygon>
        <polygon id="Fill-265" fill="#953B2B" points="42.984 69.438 72.109 69.438 72.109 66.938 42.984 66.938"></polygon>
        <polygon id="Fill-266" fill="#953B2B" points="85.713 89.188 119.713 89.188 119.713 47.188 85.713 47.188"></polygon>
        <polygon id="Fill-267" fill="#81A8CD" points="88.25 86.512 117.176 86.512 117.176 49.864 88.25 49.864"></polygon>
        <polygon id="Fill-268" fill="#953B2B" points="101.463 86.512 103.963 86.512 103.963 49.864 101.463 49.864"></polygon>
        <polygon id="Fill-269" fill="#953B2B" points="88.151 69.438 117.276 69.438 117.276 66.938 88.151 66.938"></polygon>
        <polygon id="Fill-270" fill="#953B2B" points="130.88 89.188 164.88 89.188 164.88 47.188 130.88 47.188"></polygon>
        <polygon id="Fill-271" fill="#81A8CD" points="133.417 86.512 162.343 86.512 162.343 49.864 133.417 49.864"></polygon>
        <polygon id="Fill-272" fill="#953B2B" points="146.63 86.512 149.13 86.512 149.13 49.864 146.63 49.864"></polygon>
        <polygon id="Fill-273" fill="#953B2B" points="133.317 69.438 162.442 69.438 162.442 66.938 133.317 66.938"></polygon>
        <polygon id="Fill-274" fill="#953B2B" points="82.766 195.403 121.405 195.403 121.405 124.336 82.766 124.336"></polygon>
        <polygon id="Fill-275" fill="#742F24" points="85.399 195.403 118.772 195.403 118.772 127.013 85.399 127.013"></polygon>
        <polygon id="Fill-276" fill="#953B2B" points="88.156 149.18 116.015 149.18 116.015 129.336 88.156 129.336"></polygon>
        <polygon id="Fill-277" fill="#953B2B" points="88.156 171.311 116.015 171.311 116.015 151.467 88.156 151.467"></polygon>
        <polygon id="Fill-278" fill="#953B2B" points="88.156 193.441 116.015 193.441 116.015 173.597 88.156 173.597"></polygon>
        <path d="M114.167,160.899 C114.167,162.245 113.075,163.336 111.729,163.336 C110.383,163.336 109.292,162.245 109.292,160.899 C109.292,159.552 110.383,158.461 111.729,158.461 C113.075,158.461 114.167,159.552 114.167,160.899" id="Fill-279" fill="#31221A"></path>
        <polygon id="Fill-280" fill="#50565D" points="37.322 17.638 63.555 17.638 63.555 0.113 37.322 0.113"></polygon>
        <polygon id="Fill-281" fill="#953B2B" points="17.202 28.369 186.971 28.369 186.971 11.386 17.202 11.386"></polygon>
        <polygon id="Fill-282" fill="#953B2B" points="17.202 113.129 186.971 113.129 186.971 96.145 17.202 96.145"></polygon>
        <polygon id="Fill-283" fill="#C0C6C9" points="21.552 32.779 182.621 32.779 182.621 28.369 21.552 28.369"></polygon>
        <polygon id="Fill-284" fill="#C0C6C9" points="21.552 117.539 182.621 117.539 182.621 113.129 21.552 113.129"></polygon>
        <path d="M37.381,180.143 C37.381,185.943 32.681,190.643 26.881,190.643 L17.001,190.643 C11.901,190.643 7.661,187.013 6.701,182.203 C6.571,181.533 6.501,180.843 6.501,180.143 C6.501,176.503 8.361,173.293 11.181,171.413 C11.671,166.073 16.161,161.893 21.631,161.893 C26.951,161.893 31.341,165.863 32.021,171.003 C32.981,171.543 33.841,172.223 34.581,173.023 C36.321,174.893 37.381,177.393 37.381,180.143" id="Fill-285" fill="#54883E"></path>
        <polygon id="Fill-286" fill="#2A2E35" points="12.691 195.19 31.191 195.19 31.191 189.69 12.691 189.69"></polygon>
        <polygon id="Fill-287" fill="#31221A" points="12.041 195.19 31.842 195.19 31.842 193.228 12.041 193.228"></polygon>
        <path d="M37.381,180.143 C37.381,185.943 32.681,190.643 26.881,190.643 L17.001,190.643 C11.901,190.643 7.661,187.013 6.701,182.203 C8.901,184.253 12.721,186.623 17.801,185.743 C26.111,184.313 26.611,176.003 26.611,176.003 C26.611,176.003 31.451,177.453 34.581,173.023 C36.321,174.893 37.381,177.393 37.381,180.143" id="Fill-288" fill="#487338"></path>
        <path d="M193.381,180.143 C193.381,185.943 188.681,190.643 182.881,190.643 L173.001,190.643 C167.901,190.643 163.661,187.013 162.701,182.203 C162.571,181.533 162.501,180.843 162.501,180.143 C162.501,176.503 164.361,173.293 167.181,171.413 C167.671,166.073 172.161,161.893 177.631,161.893 C182.951,161.893 187.341,165.863 188.021,171.003 C188.981,171.543 189.841,172.223 190.581,173.023 C192.321,174.893 193.381,177.393 193.381,180.143" id="Fill-289" fill="#54883E"></path>
        <polygon id="Fill-290" fill="#2A2E35" points="168.691 195.19 187.191 195.19 187.191 189.69 168.691 189.69"></polygon>
        <polygon id="Fill-291" fill="#31221A" points="168.041 195.19 187.842 195.19 187.842 193.228 168.041 193.228"></polygon>
        <path d="M193.381,180.143 C193.381,185.943 188.681,190.643 182.881,190.643 L173.001,190.643 C167.901,190.643 163.661,187.013 162.701,182.203 C164.901,184.253 168.721,186.623 173.801,185.743 C182.111,184.313 182.611,176.003 182.611,176.003 C182.611,176.003 187.451,177.453 190.581,173.023 C192.321,174.893 193.381,177.393 193.381,180.143" id="Fill-292" fill="#487338"></path>
    </g>
</svg>