<?xml version="1.0" encoding="iso-8859-1"?>
<!-- Generator: Adobe Illustrator 19.0.0, SVG Export Plug-In . SVG Version: 6.00 Build 0)  -->
<svg version="1.1" id="Layer_1" xmlns="http://www.w3.org/2000/svg" xmlns:xlink="http://www.w3.org/1999/xlink" x="0px" y="0px"
	 viewBox="0 0 512 512" style="enable-background:new 0 0 512 512;" xml:space="preserve">
<path style="fill:#5B3227;" d="M89.043,272.696c-27.662,0-50.087,22.424-50.087,50.087s22.424,50.087,50.087,50.087
	c2.001,0,39.306-0.345,39.306-0.345v-99.829H89.043z"/>
<g>
	<path style="fill:#44261D;" d="M422.957,272.696H383.65v99.829c0,0,37.305,0.345,39.306,0.345
		c27.662,0,50.087-22.424,50.087-50.087S450.619,272.696,422.957,272.696z"/>
	<path style="fill:#44261D;" d="M226.783,9.416C218.557,3.497,208.473,0,197.565,0c-10.908,0-20.992,3.497-29.217,9.416
		C160.122,3.497,150.038,0,139.13,0c-27.662,0-50.087,22.424-50.087,50.087V267.13h200.348L256,0
		C245.092,0,235.008,3.497,226.783,9.416z"/>
</g>
<path d="M422.957,50.087C422.957,22.424,400.532,0,372.87,0c-10.908,0-20.992,3.497-29.217,9.416C335.427,3.497,325.343,0,314.435,0
	c-10.908,0-20.992,3.497-29.217,9.416C276.992,3.497,266.908,0,256,0v267.13h166.957V50.087z"/>
<path style="fill:#794334;" d="M213.269,186.413c-4.123,1.099-8.452,1.692-12.921,1.692c-27.662,0-50.111-22.424-50.111-50.087
	c-37.343,30.619-61.193,77.054-61.193,129.113v77.913C89.043,437.251,163.792,512,256,512l22.261-150.817L256,210.365
	C237.916,210.365,222.073,200.779,213.269,186.413z"/>
<path style="fill:#5B3227;" d="M361.764,137.988c0,27.662-22.449,50.116-50.111,50.116c-4.469,0-8.797-0.593-12.921-1.692
	c-8.804,14.366-24.647,23.953-42.731,23.953V512c92.208,0,166.957-74.749,166.957-166.957V267.13
	C422.957,215.072,399.106,168.607,361.764,137.988z"/>
<polygon style="fill:#331D17;" points="217.043,322.783 183.652,322.783 183.652,306.087 144.696,306.087 144.696,272.696 
	217.043,272.696 "/>
<polygon points="328.348,322.783 294.957,322.783 294.957,272.696 367.304,272.696 367.304,306.087 328.348,306.087 "/>
<path style="fill:#44261D;" d="M239.304,378.435h-33.391c0,27.618,22.469,50.087,50.087,50.087l11.13-16.696L256,395.13
	C246.794,395.13,239.304,387.641,239.304,378.435z"/>
<path style="fill:#331D17;" d="M272.696,378.435c0,9.206-7.49,16.696-16.696,16.696v33.391c27.618,0,50.087-22.469,50.087-50.087
	H272.696z"/>
<g>
</g>
<g>
</g>
<g>
</g>
<g>
</g>
<g>
</g>
<g>
</g>
<g>
</g>
<g>
</g>
<g>
</g>
<g>
</g>
<g>
</g>
<g>
</g>
<g>
</g>
<g>
</g>
<g>
</g>
</svg>
