<?xml version="1.0" encoding="iso-8859-1"?>
<!-- Generator: Adobe Illustrator 19.0.0, SVG Export Plug-In . SVG Version: 6.00 Build 0)  -->
<svg version="1.1" id="Layer_1" xmlns="http://www.w3.org/2000/svg" xmlns:xlink="http://www.w3.org/1999/xlink" x="0px" y="0px"
	 viewBox="0 0 512 512" style="enable-background:new 0 0 512 512;" xml:space="preserve">
<path d="M470.326,214.326v59.535H220.279L256,0C374.179,0,470.326,96.146,470.326,214.326z"/>
<path style="fill:#5B3227;" d="M41.674,214.326v59.535H256V0C137.821,0,41.674,96.146,41.674,214.326z"/>
<path style="fill:#C48776;" d="M77.395,238.14c-29.592,0-53.581,23.989-53.581,53.581s23.989,53.581,53.581,53.581
	c2.141,0,42.048-0.369,42.048-0.369V238.14H77.395z"/>
<path style="fill:#B27361;" d="M434.605,238.14h-42.048v106.794c0,0,39.907,0.369,42.048,0.369
	c29.592,0,53.581-23.989,53.581-53.581S464.197,238.14,434.605,238.14z"/>
<path style="fill:#D59C8B;" d="M259.385,482.233l20.429-179.627L256,93.209l-84.331-36.356
	c-56.112,30.114-94.273,89.333-94.273,157.472v119.07c0,92.612,70.491,168.756,160.744,177.718L259.385,482.233z"/>
<path style="fill:#C48776;" d="M428.398,167.53L256,93.209v389.024l17.86,28.88c90.254-8.961,160.744-85.105,160.744-177.718
	v-119.07C434.605,198.132,432.436,182.447,428.398,167.53z"/>
<path d="M428.398,167.53C407.833,91.59,338.446,35.721,256,35.721v92.847c43.435,24.782,93.702,38.962,147.288,38.962H428.398z"/>
<path style="fill:#5B3227;" d="M171.669,56.855c23.317,28.845,51.926,53.225,84.331,71.713V35.721
	C225.498,35.721,196.787,43.375,171.669,56.855z"/>
<polygon style="fill:#331D17;" points="214.326,274.694 178.605,274.694 178.605,256.833 136.93,256.833 136.93,221.113 
	214.326,221.113 "/>
<polygon points="333.395,274.694 297.674,274.694 297.674,221.113 375.07,221.113 375.07,256.833 333.395,256.833 "/>
<path style="fill:#B27361;" d="M238.14,333.395h-35.721c0,29.545,24.037,53.581,53.581,53.581l11.907-17.86L256,351.256
	C246.152,351.256,238.14,343.244,238.14,333.395z"/>
<path style="fill:#A15F4C;" d="M273.86,333.395c0,9.848-8.012,17.86-17.86,17.86v35.721c29.545,0,53.581-24.037,53.581-53.581
	H273.86z"/>
<path style="fill:#5B3227;" d="M238.14,511.113C244.014,511.696,249.971,512,256,512s11.986-0.304,17.86-0.887v-52.694H238.14
	V511.113z"/>
<g>
</g>
<g>
</g>
<g>
</g>
<g>
</g>
<g>
</g>
<g>
</g>
<g>
</g>
<g>
</g>
<g>
</g>
<g>
</g>
<g>
</g>
<g>
</g>
<g>
</g>
<g>
</g>
<g>
</g>
</svg>
